<?xml version="1.0" encoding="utf-8"?>
<!-- Generator: Adobe Illustrator 26.0.3, SVG Export Plug-In . SVG Version: 6.00 Build 0)  -->
<svg version="1.1" id="Layer_1" xmlns="http://www.w3.org/2000/svg" xmlns:xlink="http://www.w3.org/1999/xlink" x="0px" y="0px"
	 viewBox="0 0 575 881.1" style="enable-background:new 0 0 575 881.1;" xml:space="preserve">
<g>
	<path d="M175.3,472.9c-22.1-0.1-44.3-0.1-66.4,0c-10.6,0.1-17.7,6.4-17.8,15.3c-0.1,9,6.9,15.6,17.4,15.9
		c11.4,0.2,22.8,0.1,34.2,0.1c10.7,0,21.5,0.1,32.2,0c11.4-0.1,18.6-6.1,18.8-15.4C193.8,479.3,186.6,472.9,175.3,472.9z"/>
	<path d="M375.4,504c11.4,0.2,22.8,0.1,34.2,0.1c10.7,0,21.5,0.1,32.2,0c11.4-0.1,18.6-6.1,18.8-15.4s-7.1-15.8-18.3-15.8
		c-22.1-0.1-44.3-0.1-66.4,0c-10.6,0.1-17.7,6.4-17.8,15.3S364.9,503.8,375.4,504z"/>
	<path d="M304,488.7c0.1-9.9-8.1-18.4-17.9-18.4c-9.6,0-18.1,8.7-17.9,18.4c0.2,9.3,8.2,17.5,17.4,17.8
		C295.3,506.9,303.9,498.6,304,488.7z"/>
	<path d="M287.6,110.7c-9.6,0-18.1,8.7-17.9,18.5c0.2,9.3,8.2,17.5,17.4,17.8c9.6,0.3,18.2-8,18.3-17.9
		C305.6,119.1,297.3,110.7,287.6,110.7z"/>
	<path d="M106.5,113.4c-0.1,0-0.1,0-0.2,0c-8.6,0-15.5,6.9-15.5,15.5c0,8.8,6.6,15.3,16.6,15.5c11.7,0.2,23.5,0.1,35.2,0.1
		c11.4,0,22.8,0.2,34.2,0c10.1-0.2,16.9-6.2,17.2-14.9c0.3-8.5-6.5-16-16.1-16.1C154.1,113,130.3,113,106.5,113.4z"/>
	<path d="M374.3,144.3c11.7,0.2,23.5,0.1,35.2,0.1c11.4,0,22.8,0.2,34.2,0c10.1-0.2,16.8-6.2,17.2-14.9c0.3-8.5-6.5-16-16.2-16.1
		c-23.8-0.4-47.6-0.4-71.4,0c-0.1,0-0.2,0-0.2,0c-8.6,0-15.5,7-15.4,15.5C357.7,137.7,364.3,144.1,374.3,144.3z"/>
	<path d="M574.6,807.6c-0.4-1.4-0.9-2.6-1.6-3.8l-0.1,0v0c-2.1-3.7-5.7-6.4-9.9-7.4h-1.3c-0.7-0.1-1.4-0.2-2.1-0.2h-15.4h-0.5h-0.1
		l-0.4,0.1h-0.9c-49.4-0.2-98.8-0.2-148.2,0c-8.6,0-17.2,0.1-25.8,0.2c-10.2,0.1-15.2-2.2-19-12.4c-6.6-17.9-20.5-29.7-38.2-36.9
		c-2.5-1-5-1.9-7.3-2.7c-0.8-0.3-1.3-1-1.3-1.8V613.8c0-1.1,0.9-2,2-2h9.2c62.6,0,125.1,0,187.7,0c33.8,0,52.4-18.8,52.5-52.8
		c0-46.9,0-93.8,0-140.8c0-34.6-18.5-53.1-53.1-53.2h-52.3c-1.1,0-2-0.9-2-1.9v-109c0-1.1,0.9-1.9,2-1.9c17.8,0,35.1-0.9,52.2,0.2
		c31,2,54-20.6,53.3-53.3c-0.9-46.6-0.2-93.2-0.2-139.8c0-35.3-18.5-53.8-53.5-53.8h-86.3c-8.6,0.2-15.5,7.4-15.2,16
		c0.2,8.3,6.9,15,15.2,15.2h86.9c16.6,0,21.6,5,21.6,21.5c0.1,47.2,0.1,94.5,0,141.7c0,16-5,20.9-21.1,20.9h-429
		c-17.5,0-22.1-4.5-22.1-21.9c0-46.9,0-93.8,0-140.7c0-16.6,5-21.5,21.6-21.5h89.6c8.6-0.2,15.5-7.4,15.2-16
		c-0.2-8.3-6.9-15-15.2-15.2H72c-34.5,0-53.2,18.7-53.2,53.1c0,46.6,0.8,93.2-0.3,139.8c-0.8,32.1,21,56.4,54.6,54.1
		c16.8-1.2,33.7-0.3,51-0.2c1.1,0,1.9,0.9,1.9,1.9v108.9c0,1.1-0.9,1.9-2,1.9c-17.9,0-35.1,0-52.4,0c-34.5,0.1-52.8,18.6-52.9,53.4
		c0,46.9,0,93.8,0,140.8c0,33.9,18.8,52.6,52.6,52.6c62.6,0,125.1,0,187.7,0h9c1.1,0,1.9,0.9,2,2v128.8c0,0.8-0.6,1.6-1.4,1.8
		c-22.2,7-39.2,20.6-47.2,43.3c-2.5,7.1-5.9,8.5-12.6,8.5c-58.7-0.2-117.3-0.2-175.9-0.1c-3.9,0-7.9,0-11.9,0h-5.9
		c-1.1,0-2.2,0.1-3.2,0.4c-0.1,0-0.2,0-0.3,0c-3.5,0.9-6.6,3-8.8,5.9c-0.3,0.3-0.6,0.6-0.8,0.9l0.1,0c0,0.1-0.1,0.1-0.1,0.2
		l-0.1,0.1c-1.4,2.3-2.1,5-2.2,7.7c0,0.1,0,0.2,0,0.3c0,0.4,0,0.7,0,1.1s0.1,0.7,0.1,1.1c0.3,2.1,0.9,4.2,2,6l0.1,0.1v-0.2
		c1.8,3,4.5,5.3,7.8,6.5c0.5,0.2,0.9,0.3,1.4,0.5l0.3,0.1c0.4,0.1,0.8,0.2,1.1,0.2c0.4,0.1,0.8,0.1,1.2,0.2l1.4,0.1h21.3
		c22.8,0.1,45.5,0.1,68.3,0.1c34.5,0,68.9-0.1,103.4-0.2c7.5,0,10.5,2.3,13.1,9.2c13.5,35.6,53.3,53.6,89,40.1
		c18.5-7,33.2-21.7,40.1-40.2c2.6-7,5.9-9.1,13.2-9.1c10,0.1,20,0.1,30,0.1c49.3,0.2,98.7,0.2,148,0h4.6c0.7,0,1.3,0,2,0h11.1
		c1.4,0,2.7-0.2,4-0.5C571.9,824.4,576.8,815.9,574.6,807.6z M158.9,254.6c0-1.1,0.9-1.9,2-2h250.9c1.1,0,1.9,0.9,2,1.9c0,0,0,0,0,0
		v107.9c0,1.1-0.9,1.9-2,2H160.8c-1.1,0-1.9-0.9-2-2V254.6z M72.2,580.5c-17.4,0-22.2-4.7-22.2-21.9c0-46.9,0-93.8,0-140.7
		c0-16.7,4.9-21.5,21.5-21.5c143,0,286,0,429,0c16.8,0,21.7,4.9,21.7,21.4c0.1,47.2,0.1,94.5,0,141.7c0,16-5.1,21.1-21.1,21.1
		c-71.7,0-143.3,0-215,0L72.2,580.5z M323.8,811.9c0,21-16.8,38.3-37.5,38.3c-20.7,0.1-37.7-17.1-37.8-38.1
		c0-21.2,16.7-38.2,37.5-38.2c20.9,0,37.8,16.9,37.8,37.8C323.8,811.7,323.8,811.8,323.8,811.9z"/>
	<ellipse transform="matrix(0.9732 -0.2298 0.2298 0.9732 3.0222 66.5162)" cx="287.2" cy="20.3" rx="20.3" ry="20.3"/>
</g>
</svg>
